<svg width="9" height="13" viewBox="0 0 9 13" fill="none" xmlns="http://www.w3.org/2000/svg">
<mask id="path-1-inside-1_45_7062" fill="white">
<path d="M6.57692 0C5.65763 0 4.98374 0.411557 4.332 0.80958C3.73089 1.17668 3.16311 1.52344 2.42308 1.52344C1.72352 1.52344 1.00078 1.12201 0.692308 0.928002V0H0V13H0.692308V7.88267C1.12567 8.11291 1.76804 8.37891 2.42308 8.37891C3.34235 8.37891 4.01628 7.96735 4.668 7.56933C5.26911 7.20223 5.83692 6.85547 6.57692 6.85547C7.49472 6.85547 8.45262 7.5465 8.46185 7.55323L9 7.94798V0.938742C8.28819 0.421891 7.41942 0 6.57692 0ZM8.30769 6.58996C7.87433 6.35972 7.23196 6.09375 6.57692 6.09375C5.65763 6.09375 4.98374 6.50531 4.332 6.90333C3.73089 7.27043 3.16311 7.61719 2.42308 7.61719C1.72341 7.61719 1.00052 7.21563 0.692308 7.02178V1.78892C1.12567 2.01916 1.76804 2.28516 2.42308 2.28516C3.34235 2.28516 4.01628 1.8736 4.668 1.47558C5.26911 1.10848 5.83692 0.761719 6.57692 0.761719C7.27652 0.761719 7.99945 1.16325 8.30769 1.35713V6.58996Z"/>
</mask>
<path d="M6.57692 0C5.65763 0 4.98374 0.411557 4.332 0.80958C3.73089 1.17668 3.16311 1.52344 2.42308 1.52344C1.72352 1.52344 1.00078 1.12201 0.692308 0.928002V0H0V13H0.692308V7.88267C1.12567 8.11291 1.76804 8.37891 2.42308 8.37891C3.34235 8.37891 4.01628 7.96735 4.668 7.56933C5.26911 7.20223 5.83692 6.85547 6.57692 6.85547C7.49472 6.85547 8.45262 7.5465 8.46185 7.55323L9 7.94798V0.938742C8.28819 0.421891 7.41942 0 6.57692 0ZM8.30769 6.58996C7.87433 6.35972 7.23196 6.09375 6.57692 6.09375C5.65763 6.09375 4.98374 6.50531 4.332 6.90333C3.73089 7.27043 3.16311 7.61719 2.42308 7.61719C1.72341 7.61719 1.00052 7.21563 0.692308 7.02178V1.78892C1.12567 2.01916 1.76804 2.28516 2.42308 2.28516C3.34235 2.28516 4.01628 1.8736 4.668 1.47558C5.26911 1.10848 5.83692 0.761719 6.57692 0.761719C7.27652 0.761719 7.99945 1.16325 8.30769 1.35713V6.58996Z" fill="#1E1E1E"/>
<path d="M4.332 0.80958L4.8532 1.66302L4.8532 1.66301L4.332 0.80958ZM0.692308 0.928002H-0.307692V1.4804L0.15991 1.7745L0.692308 0.928002ZM0.692308 0H1.69231V-1H0.692308V0ZM0 0V-1H-1V0H0ZM0 13H-1V14H0V13ZM0.692308 13V14H1.69231V13H0.692308ZM0.692308 7.88267L1.16149 6.99957L-0.307692 6.219V7.88267H0.692308ZM4.668 7.56933L4.1468 6.71589L4.14679 6.7159L4.668 7.56933ZM8.46185 7.55323L9.05331 6.74689L9.05089 6.74513L8.46185 7.55323ZM9 7.94798L8.40854 8.75431L10 9.92169V7.94798H9ZM9 0.938742H10V0.429039L9.58756 0.129559L9 0.938742ZM8.30769 6.58996L7.83851 7.47306L9.30769 8.25363V6.58996H8.30769ZM4.332 6.90333L4.8532 7.75677L4.8532 7.75676L4.332 6.90333ZM0.692308 7.02178H-0.307692V7.57416L0.159896 7.86826L0.692308 7.02178ZM0.692308 1.78892L1.16149 0.905822L-0.307692 0.125254V1.78892H0.692308ZM4.668 1.47558L4.1468 0.622139L4.14679 0.62215L4.668 1.47558ZM8.30769 1.35713H9.30769V0.804758L8.84013 0.510657L8.30769 1.35713ZM6.57692 -1C5.34169 -1 4.44421 -0.430683 3.8108 -0.0438539L4.8532 1.66301C5.52327 1.2538 5.97357 1 6.57692 1V-1ZM3.8108 -0.0438571C3.17711 0.34314 2.84086 0.523438 2.42308 0.523438V2.52344C3.48535 2.52344 4.28467 2.01022 4.8532 1.66302L3.8108 -0.0438571ZM2.42308 0.523438C2.25172 0.523438 2.03094 0.470952 1.78745 0.372023C1.55211 0.276402 1.34795 0.159024 1.22471 0.0815074L0.15991 1.7745C0.481962 1.97705 1.41603 2.52344 2.42308 2.52344V0.523438ZM1.69231 0.928002V0H-0.307692V0.928002H1.69231ZM0.692308 -1H0V1H0.692308V-1ZM-1 0V13H1V0H-1ZM0 14H0.692308V12H0V14ZM1.69231 13V7.88267H-0.307692V13H1.69231ZM0.223123 8.76577C0.709412 9.02413 1.52522 9.37891 2.42308 9.37891V7.37891C2.01086 7.37891 1.54193 7.20169 1.16149 6.99957L0.223123 8.76577ZM2.42308 9.37891C3.65828 9.37891 4.5558 8.8096 5.18921 8.42275L4.14679 6.7159C3.47677 7.1251 3.02641 7.37891 2.42308 7.37891V9.37891ZM5.1892 8.42276C5.82288 8.03577 6.15916 7.85547 6.57692 7.85547V5.85547C5.51467 5.85547 4.71533 6.36869 4.1468 6.71589L5.1892 8.42276ZM6.57692 7.85547C6.81144 7.85547 7.1179 7.95219 7.42115 8.10034C7.70714 8.24005 7.89751 8.37934 7.8728 8.36133L9.05089 6.74513C9.01695 6.72039 8.72376 6.5108 8.29904 6.30331C7.89159 6.10426 7.2602 5.85547 6.57692 5.85547V7.85547ZM7.87038 8.35956L8.40854 8.75431L9.59146 7.14165L9.05331 6.7469L7.87038 8.35956ZM10 7.94798V0.938742H8V7.94798H10ZM9.58756 0.129559C8.80386 -0.439493 7.72654 -1 6.57692 -1V1C7.1123 1 7.77253 1.28327 8.41244 1.74793L9.58756 0.129559ZM8.77688 5.70686C8.29056 5.44848 7.47476 5.09375 6.57692 5.09375V7.09375C6.98916 7.09375 7.4581 7.27095 7.83851 7.47306L8.77688 5.70686ZM6.57692 5.09375C5.34169 5.09375 4.44421 5.66307 3.8108 6.0499L4.8532 7.75676C5.52327 7.34755 5.97357 7.09375 6.57692 7.09375V5.09375ZM3.8108 6.04989C3.17711 6.43689 2.84086 6.61719 2.42308 6.61719V8.61719C3.48535 8.61719 4.28467 8.10397 4.8532 7.75677L3.8108 6.04989ZM2.42308 6.61719C2.25168 6.61719 2.03085 6.56468 1.78733 6.46573C1.55196 6.3701 1.34783 6.25273 1.22472 6.17529L0.159896 7.86826C0.481687 8.07066 1.4159 8.61719 2.42308 8.61719V6.61719ZM1.69231 7.02178V1.78892H-0.307692V7.02178H1.69231ZM0.223123 2.67202C0.709412 2.93038 1.52522 3.28516 2.42308 3.28516V1.28516C2.01086 1.28516 1.54193 1.10794 1.16149 0.905822L0.223123 2.67202ZM2.42308 3.28516C3.65828 3.28516 4.5558 2.71585 5.18921 2.329L4.14679 0.62215C3.47677 1.03135 3.02641 1.28516 2.42308 1.28516V3.28516ZM5.1892 2.32901C5.82288 1.94202 6.15916 1.76172 6.57692 1.76172V-0.238281C5.51467 -0.238281 4.71533 0.274937 4.1468 0.622139L5.1892 2.32901ZM6.57692 1.76172C6.74828 1.76172 6.96912 1.81422 7.21265 1.91317C7.44803 2.0088 7.65217 2.12618 7.77526 2.2036L8.84013 0.510657C8.51826 0.308202 7.58402 -0.238281 6.57692 -0.238281V1.76172ZM7.30769 1.35713V6.58996H9.30769V1.35713H7.30769Z" fill="#1E1E1E" mask="url(#path-1-inside-1_45_7062)"/>
</svg>
