<svg width="14" height="14" viewBox="0 0 14 14" fill="none" xmlns="http://www.w3.org/2000/svg">
<path fill-rule="evenodd" clip-rule="evenodd" d="M2 0C0.895431 0 0 0.89543 0 2V12C0 13.1046 0.89543 14 2 14H12C13.1046 14 14 13.1046 14 12V2C14 0.895431 13.1046 0 12 0H2ZM4 5.5V8.5H1.5V5.5H4ZM1.5 9.5V12C1.5 12.2761 1.72386 12.5 2 12.5H4V9.5H1.5ZM5 9.5V12.5H8V9.5H5ZM9 9.5V12.5H12C12.2761 12.5 12.5 12.2761 12.5 12V9.5H9ZM9 8.5V5.5H12.5V8.5H9ZM8 5.5H5V8.5H8V5.5ZM3.25 3.5C3.66421 3.5 4 3.16421 4 2.75C4 2.33579 3.66421 2 3.25 2H2.25C1.83579 2 1.5 2.33579 1.5 2.75C1.5 3.16421 1.83579 3.5 2.25 3.5H3.25ZM7.25 3.5C7.66421 3.5 8 3.16421 8 2.75C8 2.33579 7.66421 2 7.25 2H5.75C5.33579 2 5 2.33579 5 2.75C5 3.16421 5.33579 3.5 5.75 3.5H7.25ZM12.5 2.75C12.5 3.16421 12.1642 3.5 11.75 3.5H9.75C9.33579 3.5 9 3.16421 9 2.75C9 2.33579 9.33579 2 9.75 2H11.75C12.1642 2 12.5 2.33579 12.5 2.75Z" fill="#464F60"/>
</svg>
