<svg width="10" height="10" viewBox="0 0 10 10" fill="none" xmlns="http://www.w3.org/2000/svg">
<path d="M1.81799 0.757392C1.5251 0.464499 1.05023 0.464498 0.757333 0.757392C0.46444 1.05029 0.46444 1.52516 0.757333 1.81805L3.93931 5.00003L0.757363 8.18198C0.46447 8.47487 0.46447 8.94974 0.757363 9.24264C1.05026 9.53553 1.52513 9.53553 1.81802 9.24264L4.99997 6.06069L8.18195 9.24267C8.47485 9.53557 8.94972 9.53557 9.24261 9.24267C9.53551 8.94978 9.53551 8.47491 9.24261 8.18201L6.06063 5.00003L9.24264 1.81802C9.53554 1.52512 9.53554 1.05025 9.24264 0.757357C8.94975 0.464464 8.47488 0.464464 8.18198 0.757357L4.99997 3.93937L1.81799 0.757392Z" fill="#868FA0"/>
</svg>
